<svg width="48" height="48" viewBox="0 0 48 48" fill="none" xmlns="http://www.w3.org/2000/svg">
<path d="M41.3951 30.1078C44.2697 28.6612 47.3156 25.9162 47.3156 20.7602C47.3156 15.3816 42.9351 11.6351 36.4328 11.6351C31.3657 11.6351 26.9629 13.4867 25.0494 17.5856C25.5329 17.7788 26.0677 17.972 27.1371 18.938C27.7942 19.5315 28.6057 20.6767 29.0978 22.0291C29.5899 23.3815 29.8107 24.9271 29.6325 25.9641C30.323 25.977 31.0112 25.8666 31.6417 25.6195C32.771 25.2114 33.695 24.1728 34.5164 23.1342L35.851 21.4279C36.3301 20.8344 37.1857 21.5392 36.775 22.0956L36.2275 22.8003C33.6931 26.0306 29.26 29.3306 26.6024 32.82C27.137 34.5869 26.6023 37.4848 24.4634 39.4168C24.1554 42.7923 26.5767 43.3132 29.4514 43.6841C33.2501 44.1292 38.9995 44.0922 42.7982 43.647C46.0151 43.2761 48 40.9392 48 37.3411C48 33.6317 45.7755 31.1464 42.3191 31.1464C39.239 31.1464 37.2541 33.0011 36.0564 35.3751C35.6799 36.1541 34.6532 35.7832 35.0639 34.93C36.1248 32.4447 38.2808 30.6642 41.3951 30.1078Z" fill="#3644FC"/>
<path d="M11.5501 34.1711C9.16306 34.2963 6.93005 34.0877 4.54303 33.5869C2.04051 33.0027 0 30.9579 0 27.7029C0 25.6164 0.847006 23.7802 1.73251 22.4449C4.96653 17.6876 9.47106 11.8871 13.5521 7.12978C15.0536 5.41883 17.4406 4 20.1356 4C23.2542 4 25.2177 6.16998 25.6797 9.63361C26.1032 12.9303 25.3717 15.2672 23.9857 17.1034C19.6351 16.2688 16.0931 17.7293 13.3596 20.6505C12.9361 21.0678 13.6676 21.8606 14.1296 21.4016C16.1701 19.2733 18.7881 17.9797 21.4831 17.9797C26.4882 17.9797 28.6057 21.9858 28.6057 25.5329C28.6057 29.706 25.3332 32.7106 21.7526 33.1279C20.9441 33.2113 21.0981 34.0042 21.7911 33.9625C22.8306 33.879 24.1782 33.5869 25.5642 32.794C26.5652 36.508 23.7547 40.2638 18.6726 40.2638C13.5906 40.2638 10.7801 37.3426 11.5501 34.1711Z" fill="#3644FC"/>
</svg>
