<svg width="52" height="40" viewBox="0 0 52 40" fill="none" xmlns="http://www.w3.org/2000/svg">
<path d="M44.8447 26.1078C47.9589 24.6612 51.2585 21.9162 51.2585 16.7602C51.2585 11.3816 46.513 7.63513 39.4689 7.63513C33.9795 7.63513 29.2098 9.48675 27.1369 13.5856C27.6607 13.7788 28.24 13.972 29.3985 14.938C30.1104 15.5315 30.9895 16.6767 31.5226 18.0291C32.0557 19.3815 32.295 20.9271 32.1019 21.9641C32.8499 21.977 33.5955 21.8666 34.2785 21.6195C35.5019 21.2114 36.5029 20.1728 37.3927 19.1342L38.8386 17.4279C39.3577 16.8344 40.2845 17.5392 39.8396 18.0956L39.2464 18.8003C36.5009 22.0306 31.6984 25.3306 28.8193 28.82C29.3984 30.5869 28.8191 33.4848 26.502 35.4168C26.1683 38.7923 28.7915 39.3132 31.9057 39.6841C36.021 40.1292 42.2495 40.0922 46.3647 39.647C49.8497 39.2761 52 36.9392 52 33.3411C52 29.6317 49.5902 27.1464 45.8457 27.1464C42.509 27.1464 40.3587 29.0011 39.0611 31.3751C38.6532 32.1541 37.541 31.7832 37.9859 30.93C39.1352 28.4447 41.4709 26.6642 44.8447 26.1078Z" fill="black"/>
<path d="M12.5126 30.1711C9.92665 30.2963 7.50755 30.0877 4.92162 29.5869C2.21056 29.0027 0 26.9579 0 23.7029C0 21.6164 0.917589 19.7802 1.87689 18.4449C5.38041 13.6876 10.2603 7.88706 14.6814 3.12978C16.3081 1.41883 18.894 0 21.8136 0C25.192 0 27.3191 2.16998 27.8196 5.63361C28.2784 8.93032 27.486 11.2672 25.9845 13.1034C21.2714 12.2688 17.4342 13.7293 14.4729 16.6505C14.0141 17.0678 14.8066 17.8606 15.3071 17.4016C17.5176 15.2733 20.3538 13.9797 23.2734 13.9797C28.6955 13.9797 30.9895 17.9858 30.9895 21.5329C30.9895 25.706 27.4443 28.7106 23.5654 29.1279C22.6895 29.2113 22.8563 30.0042 23.6071 29.9625C24.7332 29.879 26.193 29.5869 27.6945 28.794C28.7789 32.508 25.7342 36.2638 20.2287 36.2638C14.7231 36.2638 11.6784 33.3426 12.5126 30.1711Z" fill="black"/>
</svg>
